<?xml version="1.0" encoding="UTF-8" standalone="no"?>
<!-- Generator: Adobe Illustrator 15.0.0, SVG Export Plug-In . SVG Version: 6.00 Build 0)  -->

<svg
   xmlns:dc="http://purl.org/dc/elements/1.1/"
   xmlns:cc="http://creativecommons.org/ns#"
   xmlns:rdf="http://www.w3.org/1999/02/22-rdf-syntax-ns#"
   xmlns:svg="http://www.w3.org/2000/svg"
   xmlns="http://www.w3.org/2000/svg"
   xmlns:sodipodi="http://sodipodi.sourceforge.net/DTD/sodipodi-0.dtd"
   xmlns:inkscape="http://www.inkscape.org/namespaces/inkscape"
   version="1.1"
   id="svg2"
   sodipodi:docname="ohw.svg"
   inkscape:version="0.91 r13725"
   x="0px"
   y="0px"
   width="371.04901"
   height="371.04901"
   viewBox="0 0 371.049 371.04903"
   enable-background="new 0 0 371.049 319.942"
   xml:space="preserve"><metadata
     id="metadata55"><rdf:RDF><cc:Work
         rdf:about=""><dc:format>image/svg+xml</dc:format><dc:type
           rdf:resource="http://purl.org/dc/dcmitype/StillImage" /><dc:title /></cc:Work></rdf:RDF></metadata><defs
     id="defs53" /><sodipodi:namedview
     pagecolor="#ffffff"
     bordercolor="#666666"
     id="base"
     borderopacity="1.0"
     inkscape:pageopacity="0.0"
     inkscape:zoom="1.226764"
     inkscape:pageshadow="2"
     inkscape:cx="225.7102"
     inkscape:cy="150.2774"
     inkscape:document-units="px"
     inkscape:current-layer="layer1"
     showgrid="false"
     inkscape:window-width="1722"
     inkscape:window-height="1016"
     inkscape:window-x="198"
     inkscape:window-y="27"
     inkscape:window-maximized="0"
     fit-margin-top="50"
     fit-margin-left="50"
     fit-margin-right="50"
     fit-margin-bottom="50" /><g
     id="layer1"
     transform="translate(-179.33551,-122.31888)"
     inkscape:groupmode="layer"
     inkscape:label="Layer 1"><path
       id="path3024"
       inkscape:connector-curvature="0"
       d="m 451.90601,304.3363 -2.06718,-0.38754 c -0.52753,-0.0971 -1.39049,-0.25901 -1.918,-0.3581 l -17.62469,-3.2985 c -0.52752,-0.0991 -1.10283,-0.59651 -1.27835,-1.1067 l -6.62571,-15.54961 c -0.24669,-0.47977 -0.19892,-1.23522 0.10434,-1.68163 l 10.29984,-15.10126 c 0.30325,-0.44542 0.80055,-1.17341 1.10282,-1.61883 l 1.19059,-1.74442 c 0.30129,-0.44444 0.23987,-1.12043 -0.13945,-1.50208 l -1.48603,-1.49521 -1.37877,-1.38729 -4.3089,-4.33552 -1.37878,-1.3873 -4.30695,-4.33553 -1.37975,-1.38826 -1.48701,-1.49523 c -0.37833,-0.38165 -1.05114,-0.44444 -1.49286,-0.13931 l -1.7337,1.19695 c -0.44269,0.30611 -1.1662,0.80452 -1.60792,1.11063 l -15.33031,10.58618 c -0.44172,0.3061 -1.19741,0.36007 -1.6791,0.12263 l -14.98221,-6.17019 c -0.50899,-0.16974 -1.00433,-0.74271 -1.10379,-1.27251 l -3.41768,-18.48217 c -0.0975,-0.53077 -0.25937,-1.39906 -0.3559,-1.92885 l -0.38614,-2.07996 c -0.0975,-0.5298 -0.61723,-0.96345 -1.15255,-0.96345 l -2.10229,0 -1.95018,0 -6.09429,0 -1.95016,0 -6.09429,0 -1.95018,0 -2.10131,0 c -0.5363,0 -1.05504,0.43365 -1.15256,0.96443 l -0.38515,2.07898 c -0.0985,0.52979 -0.2584,1.39808 -0.35591,1.92885 l -3.41866,18.48217 c -0.0985,0.5298 -0.59383,1.10277 -1.10379,1.27251 l -14.98221,6.17019 c -0.48169,0.23744 -1.23738,0.18347 -1.67909,-0.12263 l -15.33031,-10.58618 c -0.4427,-0.30611 -1.16621,-0.80452 -1.60793,-1.11063 l -1.7337,-1.19695 c -0.44172,-0.30513 -1.11452,-0.24234 -1.49285,0.13931 l -1.48701,1.49523 -1.37877,1.38826 -4.30891,4.33651 -1.37878,1.3873 -4.30792,4.33454 -1.37878,1.38729 -1.48603,1.49521 c -0.37931,0.38165 -0.44171,1.05764 -0.13846,1.50208 l 1.1896,1.74442 c 0.30228,0.44542 0.79957,1.17341 1.10282,1.61883 l 10.29985,15.10126 c 0.30325,0.44641 0.35005,1.20186 0.10433,1.68163 l -6.62474,15.54961 c -0.17649,0.51019 -0.75179,1.00761 -1.27931,1.1067 l -17.62469,3.2985 c -0.52752,0.0991 -1.39048,0.26097 -1.91799,0.3581 l -2.06719,0.38754 c -0.52752,0.10007 -0.95851,0.62104 -0.95851,1.16164 l 9.7e-4,2.11527 0,1.96222 0,6.13194 0,1.96222 0,6.12998 0,1.96223 0,2.11429 c 0,0.53962 0.43196,1.06254 0.95948,1.16065 l 2.06621,0.38656 c 0.52752,0.0991 1.39047,0.26098 1.918,0.36007 l 17.09424,3.20038 c 0.52751,0.0981 1.09112,0.60044 1.25201,1.11552 l 6.57988,16.54055 c 0.23597,0.48369 0.1804,1.24602 -0.12383,1.69046 l -9.67969,14.19274 c -0.30423,0.44542 -0.80152,1.17342 -1.10379,1.61687 l -1.19059,1.74638 c -0.30227,0.44445 -0.24085,1.12043 0.13847,1.50209 l 1.487,1.49521 1.37877,1.38728 4.31086,4.33749 1.37877,1.3873 4.30696,4.33258 1.37877,1.38827 1.48799,1.49521 c 0.37833,0.38067 1.05113,0.44347 1.49285,0.13834 l 1.73273,-1.19597 c 0.44171,-0.30513 1.16523,-0.80549 1.60792,-1.10964 l 13.79942,-9.52855 c 0.44172,-0.30512 1.18181,-0.32965 1.64303,-0.0569 l 2.8648,1.62276 c 0.47194,0.25509 1.24908,0.66422 1.72688,0.90949 l 2.96718,1.52857 c 0.47878,0.24527 1.03652,0.0382 1.24227,-0.46014 l 1.27345,-3.09835 c 0.20575,-0.4984 0.54118,-1.31469 0.74692,-1.81309 l 11.97114,-29.10858 c 0.20575,-0.49644 0.54118,-1.3137 0.74692,-1.81113 l 0.84735,-2.06229 c 0.20575,-0.49841 -9.6e-4,-1.13613 -0.45829,-1.41771 l -1.89167,-1.16458 c -0.34908,-0.21387 -0.82394,-0.58376 -1.19546,-0.92126 -6.82463,-4.39832 -11.35097,-12.09022 -11.35097,-20.84861 0,-13.66882 11.01262,-24.74949 24.59655,-24.74949 13.58491,0 24.59753,11.08067 24.59753,24.74949 0,8.75937 -4.52732,16.45029 -11.35195,20.84861 -0.37053,0.3375 -0.84541,0.70641 -1.19546,0.92126 l -1.8907,1.16458 c -0.45633,0.28158 -0.66305,0.9193 -0.45829,1.41771 l 0.84833,2.06229 c 0.20477,0.49841 0.5402,1.31469 0.74497,1.81113 l 11.97114,29.10858 c 0.20574,0.4984 0.54117,1.31469 0.74594,1.81309 l 1.27541,3.09835 c 0.20574,0.4984 0.76349,0.70541 1.24226,0.46014 l 2.96621,-1.52857 c 0.47974,-0.24527 1.25592,-0.6544 1.72786,-0.90949 l 2.86382,-1.62276 c 0.4622,-0.27274 1.20229,-0.24822 1.644,0.0569 l 13.79943,9.52855 c 0.44171,0.30415 1.16717,0.80451 1.60694,1.10964 l 1.73468,1.19597 c 0.44171,0.30513 1.11452,0.24233 1.49286,-0.13834 l 1.48603,-1.49521 1.37975,-1.38827 4.30695,-4.33454 1.37878,-1.3873 4.31085,-4.33553 1.37877,-1.38728 1.48799,-1.49521 c 0.37833,-0.38068 0.44074,-1.05764 0.13748,-1.50209 l -1.19057,-1.74638 c -0.30326,-0.44345 -0.80055,-1.17145 -1.10381,-1.61687 l -9.68066,-14.19274 c -0.30324,-0.44444 -0.3598,-1.20579 -0.12383,-1.69046 l 6.57989,-16.54055 c 0.16186,-0.51508 0.72546,-1.01741 1.252,-1.11552 l 17.09523,-3.20038 c 0.52751,-0.0991 1.39047,-0.26098 1.91798,-0.36007 l 2.06524,-0.38656 c 0.52752,-0.0981 0.95851,-0.62103 0.95851,-1.16065 l 0,-2.11429 0,-1.96223 0,-6.12998 0,-1.96222 9.6e-4,-6.13194 0,-1.96222 9.7e-4,-2.11527 c 9.6e-4,-0.5406 -0.43001,-1.06157 -0.95753,-1.16164"
       style="fill:#ffffff;fill-opacity:1" /><path
       id="path3028"
       inkscape:connector-curvature="0"
       d="m 427.58723,304.80722 c -1.76962,-8.12915 -5.07023,-15.68596 -9.59743,-22.34379 l 13.72622,-20.00486 -5.89841,-5.8974 -5.89842,-5.90044 -20.26979,13.91128 c -6.58402,-4.25418 -13.98611,-7.34951 -21.93021,-8.96442 l 0.002,-10e-4 -4.51912,-24.29442 -8.34151,0 -8.34252,0 -4.52013,24.29442 0.003,10e-4 c -7.9441,1.61491 -15.3472,4.71024 -21.93122,8.96442 l -20.26777,-13.91128 -5.89943,5.90044 -5.89841,5.8974 13.72724,20.00486 c -4.52923,6.65783 -7.82883,14.21464 -9.59845,22.34379 l -23.4804,4.36743 0.001,8.34354 0,8.34049 23.04659,4.28957 c 1.55525,8.51342 4.79316,16.43527 9.3507,23.41771 l -13.0477,19.01184 5.89942,5.89841 5.89842,5.89842 18.76106,-12.87479 c 2.27119,1.55828 4.6435,2.97803 7.11086,4.24003 l 13.18927,-31.86944 c -8.82588,-5.39584 -14.71722,-15.1217 -14.71722,-26.22584 0,-16.96312 13.75252,-30.71564 30.71665,-30.71564 16.9611,0 30.71463,13.75252 30.71463,30.71564 0,11.10414 -5.89033,20.83 -14.71823,26.22584 l 13.18826,31.86944 c 2.46736,-1.262 4.83967,-2.68175 7.11086,-4.24003 l 18.76207,12.87479 5.89842,-5.89842 5.90043,-5.89841 -13.04871,-19.01184 c 4.55653,-6.98244 7.79545,-14.90429 9.35171,-23.41771 l 23.04659,-4.28957 0,-8.34049 0,-8.34354 -23.4804,-4.36743 z"
       style="fill:#ffffff;fill-opacity:1" /></g></svg>