<?xml version="1.0" standalone="no"?>
<!DOCTYPE svg PUBLIC "-//W3C//DTD SVG 20010904//EN"
 "http://www.w3.org/TR/2001/REC-SVG-20010904/DTD/svg10.dtd">
<svg version="1.0" xmlns="http://www.w3.org/2000/svg"
 width="3508.000000pt" height="2480.000000pt" viewBox="0 0 3508.000000 2480.000000"
 preserveAspectRatio="xMidYMid meet">
<metadata>
Created by potrace 1.13, written by Peter Selinger 2001-2015
</metadata>
<g transform="translate(0.000000,2480.000000) scale(0.100000,-0.100000)"
fill="#000000" stroke="none">
<path d="M13605 21599 c-226 -30 -428 -133 -586 -296 -168 -174 -256 -362
-278 -598 -29 -296 76 -583 291 -798 l78 -78 0 -670 0 -669 620 0 620 0 0 673
0 673 71 69 c92 91 149 171 203 286 61 128 86 230 93 371 20 405 -188 759
-552 939 -170 84 -385 122 -560 98z"/>
<path d="M16906 21600 c-408 -50 -731 -330 -848 -736 -20 -68 -23 -102 -23
-249 0 -146 3 -182 23 -255 47 -172 168 -374 288 -477 l54 -47 0 -673 0 -673
620 0 620 0 0 671 0 671 73 72 c142 139 238 316 279 516 16 77 19 120 15 230
-6 164 -28 254 -97 395 -131 270 -360 456 -654 530 -106 27 -251 37 -350 25z"/>
<path d="M20199 21600 c-265 -31 -520 -177 -681 -390 -63 -83 -141 -242 -169
-345 -32 -120 -37 -320 -11 -445 41 -200 135 -374 279 -516 l73 -72 0 -671 0
-671 620 0 620 0 0 673 0 673 54 47 c120 103 241 305 288 477 20 73 23 109 23
255 0 147 -3 181 -23 249 -54 187 -139 331 -269 457 -166 162 -358 252 -590
279 -97 11 -118 11 -214 0z"/>
<path d="M17952 18239 c-184 -18 -515 -95 -650 -152 -161 -69 -384 -241 -478
-369 -20 -26 -39 -48 -42 -48 -4 1 -25 26 -47 57 -84 117 -290 274 -437 333
-79 31 -305 89 -438 112 -57 10 -272 13 -915 13 -462 -1 -867 -2 -900 -3 -33
-1 -572 1 -1198 4 -1118 4 -1140 4 -1224 -16 -62 -15 -99 -30 -135 -57 -132
-96 -168 -207 -168 -513 l0 -188 -207 -5 c-229 -5 -266 -12 -385 -74 -134 -70
-233 -184 -291 -336 l-32 -82 -3 -3333 c-2 -3696 -8 -3405 64 -3552 28 -56 57
-95 118 -155 93 -92 167 -136 282 -165 76 -20 135 -20 6148 -20 5290 0 6080 2
6141 15 143 30 297 136 381 262 21 31 52 96 68 143 l31 85 3 3323 c2 3704 8
3394 -69 3551 -73 147 -209 261 -379 317 -50 16 -107 19 -582 22 l-527 3 -11
37 c-5 20 -38 147 -72 282 -55 219 -66 250 -99 296 -58 79 -119 119 -222 143
-84 20 -115 21 -647 21 -532 0 -563 -1 -647 -21 -103 -24 -164 -64 -222 -143
-33 -46 -44 -78 -101 -301 -35 -137 -67 -265 -72 -282 l-9 -33 -180 0 -179 0
-11 28 c-41 108 -165 297 -263 401 -83 87 -242 203 -353 258 -102 49 -331 111
-509 138 -109 16 -386 18 -532 4z m580 -384 c339 -62 569 -228 704 -510 91
-189 134 -382 134 -596 l0 -129 -485 0 -485 0 0 128 c0 171 -12 242 -58 332
-31 62 -45 79 -86 105 -43 26 -58 30 -120 29 -184 -2 -281 -131 -301 -399 -3
-44 -12 -271 -20 -505 -13 -377 -13 -471 1 -830 15 -409 30 -571 59 -669 22
-73 100 -151 168 -170 98 -28 222 6 296 81 77 78 97 167 107 475 l7 213 -169
2 -169 3 0 320 0 320 628 3 627 2 0 -1010 0 -1010 -334 0 -333 0 -6 38 c-3 20
-9 83 -13 140 -4 56 -10 102 -14 102 -4 0 -28 -24 -54 -54 -107 -126 -265
-226 -421 -267 -112 -30 -418 -38 -562 -15 -642 101 -855 546 -829 1731 22
1021 109 1512 312 1777 169 218 493 353 919 382 122 8 411 -3 497 -19z m-4592
-435 l0 -400 -620 0 -620 0 0 -335 0 -335 580 0 580 0 -2 -377 -3 -378 -577
-3 -578 -2 0 -775 0 -775 -500 0 -500 0 0 1890 0 1890 1120 0 1120 0 0 -400z
m1815 390 c304 -29 505 -115 661 -283 124 -132 217 -352 265 -622 32 -178 33
-454 2 -595 -96 -441 -398 -715 -883 -801 -91 -17 -175 -22 -397 -26 l-283 -6
0 -718 0 -719 -500 0 -500 0 0 1890 0 1890 763 0 c451 0 807 -4 872 -10z
m5854 -27 c5 -21 75 -301 156 -623 81 -322 291 -1154 468 -1850 l322 -1265
-514 -3 c-283 -1 -516 -1 -518 2 -2 2 -26 133 -53 292 -28 159 -53 299 -55
312 l-5 22 -380 0 -380 0 -5 -22 c-3 -13 -27 -153 -55 -312 -27 -159 -51 -291
-53 -293 -2 -2 -235 -2 -518 -1 l-515 3 343 1345 c188 740 399 1572 468 1850
69 278 131 522 136 543 l10 37 569 0 569 0 10 -37z m-4534 -4454 c252 -18 454
-58 599 -116 205 -83 331 -231 394 -461 l27 -97 5 -1045 5 -1045 31 -87 32
-88 -458 0 -457 0 -17 58 c-10 35 -16 96 -16 153 l0 94 -36 -55 c-112 -168
-268 -258 -515 -294 -583 -87 -919 229 -919 864 0 397 118 614 415 763 112 56
227 92 564 178 174 45 330 87 347 94 49 20 101 73 120 120 12 34 15 67 12 147
-3 91 -7 109 -31 150 -40 69 -99 100 -197 106 -119 7 -180 -21 -222 -101 -18
-34 -23 -66 -27 -162 l-6 -120 -448 -3 c-407 -2 -448 -1 -454 14 -13 35 16
242 47 336 92 275 313 473 626 559 177 49 318 58 579 38z m3223 -441 l-3 -453
-45 5 c-92 10 -292 0 -385 -19 -209 -43 -305 -124 -350 -298 -13 -48 -15 -185
-15 -895 l0 -838 -480 0 -480 0 0 1435 0 1435 460 0 460 0 0 -192 0 -193 27
45 c86 146 232 299 334 351 102 51 186 68 342 68 l137 1 -2 -452z m1475 437
c374 -49 606 -171 721 -379 62 -111 78 -182 84 -364 l4 -162 -413 2 -414 3 -6
95 c-9 167 -66 228 -222 237 -177 11 -259 -52 -261 -202 -1 -85 25 -142 83
-180 21 -14 217 -90 437 -169 219 -79 421 -153 447 -165 124 -54 262 -171 319
-271 91 -157 111 -468 48 -729 -92 -381 -341 -613 -755 -703 -207 -45 -595
-32 -829 27 -440 112 -666 391 -666 821 l0 104 429 0 428 0 10 -115 c9 -97 15
-123 41 -167 44 -79 100 -110 205 -116 96 -5 149 7 204 47 53 38 76 90 81 177
3 56 0 81 -16 116 -25 57 -76 114 -121 137 -20 10 -187 74 -371 141 -184 67
-369 140 -411 161 -158 79 -289 210 -365 366 -89 183 -113 429 -61 624 62 234
180 404 352 508 115 70 343 138 530 159 128 15 365 13 488 -3z m-9133 -72 c-1
-22 232 -1910 237 -1923 3 -8 71 422 152 955 l146 970 484 3 c267 1 488 -1
492 -5 4 -5 74 -446 155 -981 82 -536 150 -970 151 -965 4 11 233 1920 233
1939 0 12 70 14 480 14 378 0 480 -3 480 -12 -1 -7 -135 -652 -299 -1433
l-297 -1420 -546 -3 -546 -2 -6 27 c-3 16 -69 451 -146 967 -124 827 -150 992
-150 936 0 -16 -278 -1874 -285 -1907 l-5 -23 -545 0 c-509 0 -544 1 -549 18
-6 19 -596 2837 -596 2846 0 3 216 6 480 6 264 0 480 -3 480 -7z"/>
<path d="M15120 16645 l0 -447 148 4 c145 3 148 3 210 37 115 63 172 152 200
314 38 223 -40 429 -192 510 -36 19 -60 22 -203 25 l-163 4 0 -447z"/>
<path d="M20901 16207 c-67 -391 -125 -724 -128 -739 l-5 -28 262 0 262 0 -5
23 c-3 12 -61 342 -128 732 -67 391 -125 713 -128 717 -4 4 -62 -313 -130
-705z"/>
<path d="M17032 11719 c-174 -73 -230 -106 -282 -165 -57 -65 -80 -128 -80
-219 0 -219 101 -355 265 -355 121 0 205 69 246 200 34 109 56 611 27 609 -7
-1 -86 -32 -176 -70z"/>
<path d="M13110 7938 l0 -673 -64 -62 c-225 -216 -334 -506 -305 -812 58 -627
684 -1043 1284 -854 152 48 267 117 389 233 97 93 153 170 210 291 183 388 98
846 -213 1142 l-61 58 -2 672 -3 672 -617 3 -618 2 0 -672z"/>
<path d="M16407 8603 c-4 -3 -7 -306 -7 -671 l0 -665 -88 -91 c-143 -148 -227
-307 -268 -507 -23 -112 -15 -331 15 -444 51 -188 184 -391 335 -512 101 -80
271 -165 391 -195 128 -32 342 -32 469 0 373 93 660 393 738 771 16 78 19 121
15 231 -6 157 -27 248 -86 375 -55 117 -103 187 -198 286 l-83 86 -2 669 -3
669 -611 3 c-336 1 -614 -1 -617 -5z"/>
<path d="M19697 8603 c-4 -3 -7 -305 -7 -671 l0 -665 -83 -86 c-129 -135 -211
-277 -257 -446 -33 -120 -38 -320 -12 -446 78 -377 366 -678 738 -771 127 -32
341 -32 469 0 120 30 290 115 391 195 151 121 284 324 335 512 30 113 38 332
15 444 -41 200 -125 359 -268 507 l-88 91 -2 669 -3 669 -611 3 c-336 1 -614
-1 -617 -5z"/>
</g>
</svg>
