<?xml version="1.0" encoding="UTF-8" standalone="no"?>
<!-- Created with Inkscape (http://www.inkscape.org/) -->

<svg
   xmlns:dc="http://purl.org/dc/elements/1.1/"
   xmlns:cc="http://creativecommons.org/ns#"
   xmlns:rdf="http://www.w3.org/1999/02/22-rdf-syntax-ns#"
   xmlns:svg="http://www.w3.org/2000/svg"
   xmlns="http://www.w3.org/2000/svg"
   xmlns:sodipodi="http://sodipodi.sourceforge.net/DTD/sodipodi-0.dtd"
   xmlns:inkscape="http://www.inkscape.org/namespaces/inkscape"
   id="svg4206"
   version="1.1"
   inkscape:version="0.91 r13725"
   width="600"
   height="510"
   viewBox="0 0 600 510"
   sodipodi:docname="pio-lattice-ice40.svg"
   inkscape:export-filename="/home/jesus/code/fpgawars.github.io/img/projects/pio-lattice-ice40-min.png"
   inkscape:export-xdpi="90"
   inkscape:export-ydpi="90">
  <metadata
     id="metadata4212">
    <rdf:RDF>
      <cc:Work
         rdf:about="">
        <dc:format>image/svg+xml</dc:format>
        <dc:type
           rdf:resource="http://purl.org/dc/dcmitype/StillImage" />
        <dc:title></dc:title>
      </cc:Work>
    </rdf:RDF>
  </metadata>
  <defs
     id="defs4210" />
  <sodipodi:namedview
     pagecolor="#ffffff"
     bordercolor="#666666"
     borderopacity="1"
     objecttolerance="10"
     gridtolerance="10"
     guidetolerance="10"
     inkscape:pageopacity="0"
     inkscape:pageshadow="2"
     inkscape:window-width="1920"
     inkscape:window-height="1016"
     id="namedview4208"
     showgrid="false"
     inkscape:zoom="1.3611806"
     inkscape:cx="181.38546"
     inkscape:cy="129.46236"
     inkscape:window-x="0"
     inkscape:window-y="27"
     inkscape:window-maximized="1"
     inkscape:current-layer="svg4206" />
  <flowRoot
     xml:space="preserve"
     id="flowRoot4867"
     style="font-style:normal;font-variant:normal;font-weight:bold;font-stretch:normal;font-size:25px;line-height:125%;font-family:'DejaVu Sans';-inkscape-font-specification:'DejaVu Sans Bold';text-align:center;letter-spacing:0px;word-spacing:0px;text-anchor:middle;fill:#000000;fill-opacity:1;stroke:none;stroke-width:1px;stroke-linecap:butt;stroke-linejoin:miter;stroke-opacity:1"
     transform="translate(0,290)"><flowRegion
       id="flowRegion4869"><rect
         id="rect4871"
         width="41.558441"
         height="149.61038"
         x="-365.71429"
         y="98.441559"
         style="font-style:normal;font-variant:normal;font-weight:bold;font-stretch:normal;font-family:'DejaVu Sans';-inkscape-font-specification:'DejaVu Sans Bold'" /></flowRegion><flowPara
       id="flowPara4873"></flowPara></flowRoot>  <path
     inkscape:connector-curvature="0"
     id="path5004"
     d="m 176.55171,402.29698 c -0.21301,-0.213 -0.38672,-0.58335 -0.38601,-0.82298 0.002,-0.74265 8.28989,-32.30393 8.61169,-32.79507 0.30194,-0.46079 0.32316,-0.46334 3.85154,-0.46334 3.19127,0 3.58016,0.0355 3.86843,0.35412 0.17626,0.19479 0.32048,0.58211 0.32048,0.86076 0,0.27865 -1.52496,6.34716 -3.38878,13.48559 -1.86382,7.1384 -3.38877,13.06873 -3.38877,13.17845 0,0.13452 3.54846,0.20044 10.89248,0.20236 11.32167,0.003 11.53294,0.0172 12.02895,0.81152 0.27922,0.44719 -0.74819,4.70352 -1.25857,5.2139 -0.34742,0.3474 -0.97433,0.36198 -15.56308,0.36198 -14.94287,0 -15.20765,-0.006 -15.58836,-0.38729 z m 34.87003,-0.12293 c -0.50878,-0.64682 -0.5033,-0.83581 0.0476,-1.64126 0.72483,-1.0597 25.3067,-31.60643 25.73393,-31.97833 0.33932,-0.29536 0.83025,-0.33887 3.82344,-0.33887 3.12931,0 3.46372,0.0326 3.76748,0.36833 0.31047,0.34308 8.82717,32.16773 8.82773,32.9869 1.3e-4,0.18638 -0.17405,0.51316 -0.38706,0.72616 -0.35908,0.35909 -0.64549,0.38729 -3.93271,0.38729 -2.73721,0 -3.63108,-0.0621 -3.92128,-0.27202 -0.27389,-0.19822 -0.66502,-1.3675 -1.44126,-4.30859 l -1.06536,-4.03655 -8.45175,-0.0504 -8.45173,-0.0504 -3.33422,4.17054 c -1.83383,2.29379 -3.4927,4.25535 -3.68639,4.35901 -0.19369,0.1037 -1.87652,0.18847 -3.73963,0.18847 l -3.38745,0 -0.40133,-0.51022 z m 29.70399,-14.3901 c 0.0623,-0.10081 -0.20266,-1.42973 -0.58884,-2.95308 -0.3862,-1.52333 -0.89487,-3.6792 -1.13039,-4.7908 -0.23551,-1.11159 -0.52143,-2.05214 -0.63537,-2.09013 -0.11394,-0.0379 -0.60179,0.48396 -1.08409,1.15984 -0.48231,0.6759 -2.08632,2.74929 -3.56447,4.60752 -3.06988,3.85927 -3.02628,3.79757 -2.86635,4.05638 0.15685,0.25376 9.71288,0.26372 9.86951,0.0112 z m 21.22446,14.3901 c -0.22074,-0.28062 -0.40134,-0.59021 -0.40134,-0.68797 0,-0.0978 1.52496,-6.02675 3.38877,-13.17555 1.86384,-7.1488 3.38878,-13.15686 3.38878,-13.35124 0,-0.33432 -0.33244,-0.35449 -6.14821,-0.37274 -3.38151,-0.0112 -6.36606,-0.0796 -6.63231,-0.15342 -0.26627,-0.0738 -0.59743,-0.36932 -0.73593,-0.65677 -0.22025,-0.45714 -0.17905,-0.79265 0.32865,-2.67629 0.31925,-1.1845 0.72929,-2.31808 0.91117,-2.51906 0.31954,-0.35307 0.9307,-0.36542 18.08597,-0.36542 16.95506,0 17.76967,0.0158 18.07571,0.35412 0.17628,0.19479 0.32049,0.59691 0.32049,0.89366 0,0.92432 -0.98437,4.25136 -1.37827,4.65837 -0.35874,0.37071 -0.66903,0.38975 -7.24403,0.44492 -3.77809,0.0318 -6.87086,0.0753 -6.87287,0.0968 -0.002,0.0216 -1.60076,6.16099 -3.55284,13.6432 -2.31374,8.86835 -3.67109,13.73865 -3.89928,13.99079 -0.32489,0.359 -0.59744,0.3868 -3.79157,0.3868 l -3.44154,0 z m 38.71481,0.12293 c -0.213,-0.213 -0.38729,-0.53751 -0.38729,-0.72114 0,-0.18363 1.52495,-6.18292 3.38877,-13.33177 1.86383,-7.14883 3.38878,-13.14195 3.38878,-13.31803 0,-0.291 -0.55328,-0.32019 -6.0709,-0.32019 -6.51164,0 -7.18414,-0.0822 -7.50144,-0.91676 -0.21678,-0.57013 0.81234,-4.57299 1.32006,-5.13463 0.28754,-0.31803 1.39764,-0.33887 18.06161,-0.33887 16.95507,0 17.76969,0.0158 18.07572,0.35412 0.17629,0.19479 0.32049,0.59691 0.32049,0.89366 0,0.92436 -0.98438,4.25138 -1.37828,4.65837 -0.35885,0.37076 -0.66755,0.38965 -7.23323,0.44273 -6.27799,0.0506 -6.86722,0.0836 -6.96262,0.38728 -0.0575,0.18252 -1.67173,6.34451 -3.58757,13.69332 -2.82802,10.84771 -3.56131,13.42521 -3.89776,13.70033 -0.35936,0.29387 -0.86171,0.33887 -3.78174,0.33887 -3.10912,0 -3.39702,-0.0297 -3.7546,-0.38729 z m 27.1102,0 c -0.213,-0.213 -0.38911,-0.53978 -0.39136,-0.72616 -0.002,-0.18637 1.89149,-7.61347 4.20825,-16.50466 2.81795,-10.81459 4.32564,-16.27909 4.5547,-16.50817 0.30255,-0.30254 0.75581,-0.3424 3.89482,-0.3424 3.19559,0 3.5846,0.0355 3.87288,0.35412 0.17628,0.19479 0.32048,0.55986 0.32048,0.81133 0,0.44734 -7.6718,30.17975 -8.25638,31.99798 -0.163,0.50691 -0.45759,1.00795 -0.65471,1.11345 -0.19761,0.10573 -1.88434,0.1918 -3.75989,0.1918 -3.14332,0 -3.4309,-0.0293 -3.78879,-0.38729 z m 29.16957,0.16758 c -7.08188,-0.90944 -11.637,-4.53195 -12.63594,-10.04883 -0.77513,-4.28068 0.65919,-9.95631 3.63312,-14.37621 1.2002,-1.78376 3.89747,-4.39028 5.87382,-5.67619 3.12898,-2.03585 7.12002,-3.43338 11.23596,-3.93447 1.01215,-0.12322 5.21343,-0.2124 10.02109,-0.21272 10.26251,-6.4e-4 9.5253,-0.30992 8.48678,3.55994 -0.31118,1.1595 -0.70621,2.24874 -0.87785,2.42056 -0.27476,0.27501 -1.3715,0.32534 -9.1647,0.42072 -8.30852,0.10166 -8.94781,0.13432 -10.40176,0.53112 -4.82234,1.31612 -8.05577,4.54334 -9.64213,9.62369 -1.73218,5.5473 -0.92776,8.92282 2.50045,10.49231 2.03218,0.93037 3.06847,1.02255 11.53448,1.02618 4.66715,0.002 8.08183,0.0807 8.3775,0.1931 0.93266,0.3546 1.00311,0.92728 0.39926,3.24549 -0.30743,1.18016 -0.71301,2.27255 -0.93537,2.51933 l -0.39257,0.43569 -8.34136,-0.0245 c -4.58775,-0.0135 -8.93961,-0.10134 -9.67078,-0.19521 z m 24.70664,-0.0818 c -0.28464,-0.19936 -0.43038,-0.50127 -0.43038,-0.89154 0,-0.93009 8.31623,-32.55588 8.66101,-32.93682 0.28743,-0.31763 1.32892,-0.33888 16.60958,-0.33888 15.54806,0 16.31775,0.0165 16.6234,0.35413 0.17626,0.19477 0.31993,0.56511 0.31927,0.82298 -0.002,0.79069 -1.10339,4.46428 -1.43907,4.80007 -0.28388,0.28401 -1.59424,0.32614 -12.8478,0.41308 l -12.53166,0.0969 -0.82313,3.09831 c -0.4527,1.70407 -0.84483,3.31616 -0.87141,3.58242 l -0.0483,0.48411 11.13455,0.10081 c 6.124,0.0554 11.15432,0.12078 11.17848,0.14523 0.0242,0.0245 0.17994,0.25197 0.34613,0.5056 0.27897,0.42579 0.26201,0.6213 -0.2211,2.54927 -0.29414,1.17391 -0.67881,2.24371 -0.87861,2.44351 -0.33656,0.33655 -0.9532,0.35556 -11.63518,0.35836 -6.20389,10e-4 -11.38115,0.0674 -11.50506,0.14628 -0.20705,0.13174 -2.19528,7.29427 -2.19528,7.90844 0,0.22667 1.87094,0.26902 11.88492,0.26902 6.53671,0 12.16312,0.0556 12.50317,0.12365 0.34004,0.0679 0.75411,0.33099 0.92015,0.58442 0.27983,0.42705 0.25797,0.62701 -0.2989,2.7326 -0.41888,1.58381 -0.72603,2.37447 -1.01424,2.61071 -0.38644,0.31678 -1.47611,0.33889 -16.7118,0.33889 -14.43792,0 -16.34753,-0.0344 -16.72879,-0.30146 z"
     style="fill:#323232;fill-opacity:1"
     sodipodi:nodetypes="scsscssscssssccssccsscscccscsccccsscsssccsssscssssscssscssscscssssssscssscscscccssscscssccsssssscssssccsccscccscscccscsccsccssccssssssscc" />
  <text
     xml:space="preserve"
     style="font-style:normal;font-weight:normal;font-size:34.83591461px;line-height:125%;font-family:sans-serif;text-align:center;letter-spacing:0px;word-spacing:0px;text-anchor:middle;fill:#323232;fill-opacity:1;stroke:none;stroke-width:1px;stroke-linecap:butt;stroke-linejoin:miter;stroke-opacity:1;"
     x="299.29834"
     y="449.5936"
     id="text5026"
     sodipodi:linespacing="125%"><tspan
       sodipodi:role="line"
       id="tspan5028"
       x="299.29834"
       y="449.5936"
       style="font-style:normal;font-variant:normal;font-weight:bold;font-stretch:normal;font-size:38.31951141px;font-family:'DejaVu Sans';-inkscape-font-specification:'DejaVu Sans Bold';fill:#323232;fill-opacity:1;">iCE40</tspan></text>
  <path
     style="fill:#ff7f00"
     inkscape:connector-curvature="0"
     d="m 300,59.863792 c -36.58921,0 -70.98885,14.248282 -96.86135,40.120779 -25.8725,25.872499 -40.12078,60.272139 -40.12078,96.861349 0,36.58921 14.24828,70.98885 40.12078,96.86135 25.8725,25.8725 60.27214,40.12078 96.86135,40.12078 36.58921,0 70.98885,-14.24828 96.86135,-40.12078 25.8725,-25.8725 40.12078,-60.27214 40.12078,-96.86135 0,-36.58921 -14.24828,-70.98885 -40.12078,-96.861349 C 370.98885,74.112074 336.58921,59.863792 300,59.863792"
     id="path5090" />
  <path
     style="fill:#ffffff"
     inkscape:connector-curvature="0"
     d="m 429.90444,196.84592 c 0,71.74439 -58.16069,129.90401 -129.90401,129.90401 -71.74439,0 -129.90508,-58.15962 -129.90508,-129.90401 0,-71.74439 58.16069,-129.904004 129.90508,-129.904004 71.74332,0 129.90401,58.159614 129.90401,129.904004"
     id="path5092" />
  <path
     style="fill:#e57200"
     inkscape:connector-curvature="0"
     d="m 335.17509,139.12251 5.50604,-19.8378 c 5.63339,-0.50191 10.05106,-5.22886 10.05106,-10.99388 0,-6.09892 -4.9442,-11.043119 -11.04311,-11.043119 -6.09999,0 -11.04419,4.944199 -11.04419,11.043119 0,4.0185 2.15319,7.52438 5.36157,9.45711 l -5.40438,19.4718 c -15.45115,-3.92646 -28.49442,-3.62682 -28.49442,-3.62682 l -2.41645,1.07981 0,150.7574 2.41645,0.80584 c 14.56933,0 78.31204,-44.01943 78.46829,-91.25365 0,-33.84314 -22.49825,-49.04067 -43.40086,-55.85981 z m -15.34414,97.10535 c -12.4322,-19.8592 -7.17658,-66.08425 25.3021,-72.6915 8.9049,-1.42654 19.80783,4.4241 23.02048,17.42135 8.11299,27.57407 -39.61352,66.18484 -48.32258,55.27015 z m 19.49512,-42.54152 c -5.55526,0 -10.05855,4.50329 -10.05855,10.05856 0,5.55527 4.50329,10.05855 10.05855,10.05855 5.55527,0 10.05856,-4.50328 10.05856,-10.05855 0,-5.55527 -4.50329,-10.05856 -10.05856,-10.05856 z m 3.00719,9.28054 c -1.403,0 -2.54059,-1.13759 -2.54059,-2.54059 0,-1.40299 1.13759,-2.54059 2.54059,-2.54059 1.403,0 2.54059,1.1376 2.54059,2.54059 0,1.403 -1.13759,2.54059 -2.54059,2.54059 z"
     id="path5094" />
  <path
     style="fill:#ff7f00"
     inkscape:connector-curvature="0"
     d="m 271.50258,137.67456 -5.37548,-20.22733 c 3.07568,-1.96056 5.12185,-5.39368 5.12185,-9.31158 0,-6.09891 -4.9442,-11.044179 -11.04418,-11.044179 -6.09892,0 -11.04312,4.945269 -11.04312,11.044179 0,6.08072 4.91424,11.01101 10.98747,11.04098 l 5.39046,20.28405 c -20.98502,6.96683 -43.75402,22.19753 -43.75402,55.52164 0.46659,48.16742 63.75234,91.24937 78.32167,91.24937 l 0,-152.64198 c 0,0 -13.11176,-0.0663 -28.60465,4.08485 z m 11.12445,98.5533 c -8.70907,10.91469 -56.43557,-27.69608 -48.32259,-55.27015 3.21266,-12.99725 14.11558,-18.84789 23.02049,-17.42135 32.47868,6.60725 37.7343,52.8323 25.3021,72.6915 z m -20.14076,-42.23042 c -5.55527,0 -10.05856,4.50329 -10.05856,10.05856 0,5.55527 4.50329,10.05855 10.05856,10.05855 5.55526,0 10.05855,-4.50328 10.05855,-10.05855 0,-5.55527 -4.50329,-10.05856 -10.05855,-10.05856 z m -3.00719,9.28054 c -1.403,0 -2.54059,-1.13759 -2.54059,-2.54059 0,-1.40299 1.13759,-2.54059 2.54059,-2.54059 1.403,0 2.54059,1.1376 2.54059,2.54059 0,1.403 -1.13759,2.54059 -2.54059,2.54059 z"
     id="path5096" />
</svg>
