<?xml version="1.0" encoding="UTF-8" standalone="no"?>
<!-- Created with Inkscape (http://www.inkscape.org/) -->

<svg
   xmlns:dc="http://purl.org/dc/elements/1.1/"
   xmlns:cc="http://creativecommons.org/ns#"
   xmlns:rdf="http://www.w3.org/1999/02/22-rdf-syntax-ns#"
   xmlns:svg="http://www.w3.org/2000/svg"
   xmlns="http://www.w3.org/2000/svg"
   xmlns:sodipodi="http://sodipodi.sourceforge.net/DTD/sodipodi-0.dtd"
   xmlns:inkscape="http://www.inkscape.org/namespaces/inkscape"
   width="600mm"
   height="510mm"
   viewBox="0 0 2125.9842 1807.0866"
   id="svg2"
   version="1.1"
   inkscape:version="0.91 r13725"
   sodipodi:docname="add.svg"
   inkscape:export-filename="/home/jesus/code/fpgawars.github.io/img/add-min.png"
   inkscape:export-xdpi="25.4"
   inkscape:export-ydpi="25.4">
  <defs
     id="defs4" />
  <sodipodi:namedview
     id="base"
     pagecolor="#ffffff"
     bordercolor="#666666"
     borderopacity="1.0"
     inkscape:pageopacity="0.0"
     inkscape:pageshadow="2"
     inkscape:zoom="0.35"
     inkscape:cx="878.61876"
     inkscape:cy="810.78121"
     inkscape:document-units="px"
     inkscape:current-layer="text4138"
     showgrid="false"
     inkscape:window-width="1920"
     inkscape:window-height="1016"
     inkscape:window-x="0"
     inkscape:window-y="27"
     inkscape:window-maximized="1" />
  <metadata
     id="metadata7">
    <rdf:RDF>
      <cc:Work
         rdf:about="">
        <dc:format>image/svg+xml</dc:format>
        <dc:type
           rdf:resource="http://purl.org/dc/dcmitype/StillImage" />
        <dc:title></dc:title>
      </cc:Work>
    </rdf:RDF>
  </metadata>
  <g
     inkscape:label="Layer 1"
     inkscape:groupmode="layer"
     id="layer1"
     transform="translate(0,754.72436)">
    <g
       style="font-style:normal;font-weight:normal;font-size:167.20277405px;line-height:125%;font-family:sans-serif;text-align:center;letter-spacing:0px;word-spacing:0px;text-anchor:middle;fill:#000000;fill-opacity:1;stroke:none;stroke-width:1px;stroke-linecap:butt;stroke-linejoin:miter;stroke-opacity:1"
       id="text4138">
      <path
         style="fill:#007500;fill-opacity:1"
         d="m 1099.864,362.72088 c 2.5342,-1.73786 6.0294,-5.23424 7.7672,-7.76975 l 3.1598,-4.61002 0.6556,-76.14614 0.6555,-76.14611 76.0488,-0.65559 c 54.3924,-0.4689 76.7955,-1.0902 78.6711,-2.18175 3.8023,-2.21282 9.211,-8.3218 11.651,-13.15958 1.7556,-3.48075 2.1164,-9.09061 2.1164,-32.90121 0,-27.52256 -0.1257,-28.94298 -3.0519,-34.48373 -2.0038,-3.79415 -5.2326,-7.12966 -9.4016,-9.71232 l -6.3497,-3.93356 -75.1698,-0.37846 -75.1698,-0.37847 0,-74.480676 0,-74.480665 -3.052,-5.77878 c -2.0032,-3.79293 -5.2334,-7.13051 -9.3999,-9.71233 l -6.348,-3.93355 -25.9184,-0.44514 c -31.1668,-0.53526 -37.4846,0.71349 -44.8486,8.86456 -2.5652,2.83934 -5.29,7.4168 -6.0551,10.17217 -0.903,3.25205 -1.3937,30.4267 -1.3984,77.452751 l -0.01,72.443 -71.87719,0 c -81.40567,0 -81.62639,0.0224 -89.83785,9.11148 -6.87314,7.60775 -7.67207,12.40214 -7.19326,43.16654 0.47288,30.38242 0.93989,32.12861 10.70357,40.02155 l 5.03783,4.07257 76.58347,0.35849 76.58343,0.35849 0.01,73.06789 c 0.01,46.94153 0.4991,74.83883 1.3827,78.02068 1.6598,5.97669 7.5197,12.94054 13.347,15.86125 3.6569,1.83293 8.7456,2.0946 35.1879,1.80947 30.2518,-0.32621 31.0113,-0.4009 35.5203,-3.49306 z"
         id="path4175"
         inkscape:connector-curvature="0"
         sodipodi:nodetypes="cccccsssssscccccsscsssccsssscccccsscc" />
    </g>
  </g>
</svg>
